<svg xmlns="http://www.w3.org/2000/svg" viewBox="0 0 448 512">
<path d="M224,202.66A53.34,53.34,0,1,0,277.34,256,53.38,53.38,0,0,0,224,202.66ZM224,338a82,82,0,1,1,82-82A81.9,81.9,0,0,1,224,338ZM370.06,136a26,26,0,1,1-26-26A26,26,0,0,1,370.06,136ZM398.8,177.29c-1.09-22.9-6.27-43.31-22.85-59.89S339.61,90.29,316.71,89.2c-22.94-1.3-91.78-1.3-114.72,0-22.9,1.09-43.31,6.27-59.89,22.85S90.29,172.39,89.2,195.29c-1.3,22.94-1.3,91.78,0,114.72,1.09,22.9,6.27,43.31,22.85,59.89S172.39,421.71,195.29,422.8c22.94,1.3,91.78,1.3,114.72,0,22.9-1.09,43.31-6.27,59.89-22.85s21.76-36.99,22.85-59.89C400.1,269.07,400.1,200.23,398.8,177.29ZM224,65c23.5,0,94.1-.21,118.9,1.09,29.7,1.36,57.18,8.57,78.8,30.19s28.83,49.1,30.19,78.8C453.1,199.9,453.1,272.1,451.8,302.9c-1.36,29.7-8.57,57.18-30.19,78.8s-49.1,28.83-78.8,30.19C318.1,413.1,246.5,413,223,413s-94.1.21-118.9-1.09c-29.7-1.36-57.18-8.57-78.8-30.19S-3.33,332.82-4.69,303.12C-6,272.32-6,200.1-4.69,169.3c1.36-29.7,8.57-57.18,30.19-78.8S74.6,61.67,104.3,60.31C129.1,59,200.5,59,224,59Z"/>
</svg>